<?xml version="1.0" standalone="no"?>
<!DOCTYPE svg PUBLIC "-//W3C//DTD SVG 20010904//EN"
 "http://www.w3.org/TR/2001/REC-SVG-20010904/DTD/svg10.dtd">
<svg version="1.0" xmlns="http://www.w3.org/2000/svg"
 width="1600.000000pt" height="1600.000000pt" viewBox="0 0 1600.000000 1600.000000"
 preserveAspectRatio="xMidYMid meet">
<metadata>
Created by potrace 1.11, written by Peter Selinger 2001-2013
</metadata>
<g transform="translate(0.000000,1600.000000) scale(0.100000,-0.100000)"
fill="#000000" stroke="none">
<path d="M362 14987 l-33 -34 3 -497 c2 -398 6 -498 16 -505 7 -4 66 -14 130
-20 230 -25 542 -81 717 -130 331 -94 506 -214 603 -414 52 -107 75 -183 117
-393 l35 -174 -1 -2532 c-1 -1393 -5 -3550 -9 -4793 l-7 -2260 -25 -115 c-48
-222 -112 -391 -183 -484 -34 -45 -154 -136 -224 -171 -125 -62 -331 -126
-551 -169 -92 -18 -577 -86 -615 -86 -3 0 -5 -226 -5 -503 l0 -503 33 -32 33
-32 3328 2 3329 3 21 28 c21 28 21 38 24 532 l4 503 -39 6 c-21 3 -112 15
-203 26 -597 75 -979 208 -1131 397 -83 104 -126 211 -186 464 l-36 154 -4
2198 -4 2197 2291 0 2291 0 -6 -1768 c-6 -1959 -11 -2474 -26 -2607 -29 -265
-108 -505 -208 -638 -115 -154 -413 -277 -862 -356 -95 -17 -484 -71 -511 -71
-4 0 -8 -228 -8 -507 l0 -507 27 -28 27 -28 3336 0 3336 0 32 33 32 33 0 502
c0 276 -3 502 -7 502 -33 0 -500 64 -583 79 -303 56 -523 132 -681 234 -150
96 -235 255 -305 568 -23 103 -26 145 -34 444 -11 426 -11 8667 0 9095 7 297
10 335 34 444 76 340 176 500 382 608 218 114 557 197 997 244 92 10 171 21
176 24 5 3 13 225 17 503 l7 498 -33 34 -34 35 -3331 0 -3331 0 -29 -30 -29
-30 3 -502 c1 -277 5 -506 7 -510 3 -5 20 -8 39 -8 55 0 350 -40 488 -66 328
-61 582 -145 710 -232 210 -145 309 -408 347 -927 6 -88 10 -821 10 -1991 l0
-1851 -812 -6 c-446 -4 -1474 -7 -2285 -7 l-1473 0 1 1293 c0 710 4 1627 9
2037 l8 745 27 125 c33 150 91 321 137 397 108 182 349 304 779 397 113 25
397 68 549 83 l75 8 6 255 c4 140 4 371 1 513 -5 234 -7 261 -24 283 l-19 24
-3328 0 -3327 0 -32 -33z"/>
</g>
</svg>
